<svg width="809" height="688" viewBox="0 0 809 688" fill="none" xmlns="http://www.w3.org/2000/svg">
<path d="M623.13 417.794C623.13 386.479 654.435 348.205 678.783 327.328C676.21 376.314 675.304 442.15 685.739 456.068C696.842 470.877 753.975 468.709 804 445.629C751.692 520.698 718.865 558.701 612.696 570.89C602.261 572.087 598.783 581.328 598.783 588.287C600.141 611.386 600.903 624.338 602.261 647.437C579.169 644.72 566.222 643.196 543.13 640.478C505.592 670.877 457.719 685.193 407.478 685.967M623.13 417.794C619.652 383.869 550.087 316.89 490.957 309.931C504.87 275.136 515.304 229.904 518.783 184.671C553.565 188.15 574.435 209.027 602.261 243.822C637.578 218.004 657.379 203.529 692.696 177.712C657.913 125.52 619.652 90.7257 550.087 73.3287C549.95 56.5376 550.92 46.5059 553.565 28.0959C532.562 24.8505 520.583 23.9213 497.913 28.0959C494.539 44.4993 493.703 53.6448 494.435 69.8492C463.13 66.3696 421.391 73.3285 397.043 90.7259M623.13 417.794C637.043 553.492 564 647.437 414.435 650.917L407.478 685.967M397.043 90.7259C383.014 55.461 374.565 36.0253 355.304 3.73976C317.043 -3.21923 257.913 10.6986 230.087 45.4931C255.412 88.7502 269.778 114.763 290.946 156.835M397.043 90.7259L290.946 156.835M397.043 90.7259L407.478 111.603M303.13 177.712C301.338 174.118 292.642 160.206 290.946 156.835M303.13 177.712C343.881 151.895 366.728 137.42 407.478 111.603M303.13 177.712C295 182.863 277 195 271 199.5C266 203.25 280.5 208 287.078 209M223.5 262.523C140.022 266.002 80.5221 291.056 4 341.246C54.0211 359.64 106.524 379.559 104.87 414.314C97.9741 559.169 227.779 663 358.783 682.632M407.478 111.603C426.495 99.261 437.157 92.3416 456.174 80C463 75.57 459.43 111.985 456.174 132.479M456.174 132.479C382.563 154.86 362.479 194.933 341.391 285.575C266.711 383.747 239.667 445.292 233.565 519.866M456.174 132.479C477.043 129.975 484.935 130.924 504.87 129C504.87 153.356 504.87 160.315 504.87 184.671C502.153 186.785 500.63 187.97 497.913 190.083M456.174 132.479C398.872 139.356 351.218 161.291 297 201.497C293.718 203.931 290.412 206.432 287.078 209M150.087 330.808C203.727 279.798 247.365 239.598 287.078 209M344.87 316.89C369.217 316.89 378.797 322.433 390.087 341.246M344.87 330.808C362.261 330.808 367.496 334.286 379.652 348.205M344.87 344.725C355.304 344.725 362.261 348.205 365.739 358.643M494.435 254.26C446.104 312.091 442.261 306.451 379.652 282.095C424.87 264.698 456.174 229.904 497.913 190.083M494.435 254.26C493.796 266.049 478.145 303.671 451.503 335.797C429.599 362.211 400.266 384.909 365.739 386.479C422.754 389.003 515.304 393.438 539.652 421.273C531.087 427.271 519.146 433.691 504.87 439.961M494.435 254.26C495.016 243.542 495.487 234.837 495.943 226.424M497.913 190.083C497.136 204.428 496.554 215.165 495.943 226.424M400.522 471.035C379.54 474.736 358.236 476.944 337.913 476.944L358.783 488.542L395.368 510.147C372.303 519.809 359.298 519.086 336.086 516.5M400.522 471.035C419.671 467.658 438.552 463.038 456.174 457.721M400.522 471.035C394.036 491.847 393.063 507.723 393.565 539.574C370.031 533.368 352.535 526.441 336.086 516.5M358.783 682.632L365.739 643.958C306.609 643.958 247.478 598.725 209.217 539.574C239.434 515.116 256.375 501.403 286.591 476.944C305.145 494.366 320.122 506.852 336.086 516.5M358.783 682.632C375.083 685.075 391.402 686.214 407.478 685.967M456.174 457.721C445.204 488.795 441.83 506.803 438.783 539.574C515.304 543.054 508.348 476.944 504.87 439.961M456.174 457.721C474.044 452.329 490.62 446.22 504.87 439.961M400.522 289.054C407.478 290.214 421.391 291.838 421.391 289.054C421.391 286.271 421.391 273.977 421.391 268.178L442.261 275.136V254.26H463.13V240.342H484V222.945L495.943 226.424M387 200.5C407.5 179.5 428 198 436.5 183M430.5 207.439C422.291 210.253 415.9 207.911 412.5 203C414.5 201.798 433.174 190.166 442.261 184.5C446.5 181.857 448.5 196.414 439 203C436.742 204.565 434.57 205.774 432.5 206.665M430.5 207.439L428 200.5L432.5 206.665M430.5 207.439C431.155 207.214 431.822 206.957 432.5 206.665M434 229.5C420 229.5 403.5 221.329 403.5 203C403.5 184.671 416.5 173 434 173C451.5 173 461 186 461 203C461 220 448 229.5 434 229.5Z" stroke="#9591D0" stroke-width="3"/>
</svg>
